<svg id="svg" version="1.1" xmlns="http://www.w3.org/2000/svg" xmlns:xlink="http://www.w3.org/1999/xlink" width="400" height="400" viewBox="0, 0, 400,400"><g id="svgg"><path id="path0" d="M180.190 43.987 C 129.716 46.233,83.294 57.937,37.867 79.870 C 34.546 81.474,34.123 81.729,34.123 82.132 C 34.123 89.780,40.394 118.104,46.329 137.265 C 75.907 232.750,139.935 316.643,229.479 377.237 C 234.072 380.345,233.422 380.216,236.766 378.686 C 264.734 365.889,293.620 334.378,311.669 296.977 C 314.720 290.654,318.612 281.772,318.417 281.577 C 318.198 281.358,316.480 284.393,315.134 287.373 C 298.014 325.299,269.649 357.394,242.500 369.560 L 240.544 370.437 236.907 367.937 C 157.425 313.308,99.953 239.386,70.085 153.364 C 62.563 131.700,55.902 104.205,54.490 88.998 L 54.367 87.665 59.269 85.274 C 61.965 83.959,65.365 82.348,66.825 81.695 C 69.971 80.285,69.746 80.477,70.497 78.576 C 71.386 76.324,71.665 75.965,73.692 74.460 C 88.347 63.583,112.559 57.101,137.915 57.267 L 143.223 57.301 148.340 56.409 C 151.155 55.917,153.493 55.480,153.538 55.436 C 153.666 55.307,153.670 55.309,148.957 53.265 C 146.481 52.190,144.476 51.297,144.502 51.281 C 144.649 51.185,158.653 51.591,164.512 51.860 C 168.297 52.034,171.435 52.135,171.486 52.084 C 171.537 52.033,171.145 51.714,170.616 51.374 C 169.280 50.517,169.291 50.518,173.805 51.650 L 177.838 52.662 181.478 52.411 C 195.709 51.427,211.735 51.432,226.540 52.426 C 230.971 52.723,240.471 53.579,241.366 53.761 C 241.861 53.862,241.931 53.765,243.313 51.056 C 244.485 48.758,244.730 48.384,244.656 49.005 C 244.005 54.457,243.925 54.103,245.849 54.296 C 260.285 55.747,284.446 60.848,302.464 66.248 C 304.654 66.904,308.706 67.925,311.469 68.517 C 321.317 70.628,334.966 74.136,345.085 77.157 C 347.570 77.899,349.690 78.476,349.798 78.440 C 350.040 78.359,342.704 74.788,338.863 73.117 C 300.782 56.551,258.551 46.864,212.607 44.156 C 208.236 43.898,184.913 43.776,180.190 43.987 " stroke="none" fill="#fc5404" fill-rule="evenodd"></path><path id="path1" d="M162.938 54.578 L 159.716 54.692 162.661 56.233 C 166.254 58.113,169.235 59.868,172.175 61.833 C 173.397 62.649,174.527 63.318,174.686 63.318 C 174.878 63.318,174.976 63.499,174.976 63.850 L 174.976 64.382 172.404 64.860 L 169.831 65.337 166.612 64.432 C 150.156 59.805,133.026 59.073,114.099 62.189 C 100.182 64.479,91.508 67.661,78.992 75.067 C 76.783 76.374,76.930 76.399,80.793 75.378 C 93.355 72.056,107.635 70.152,120.047 70.144 L 122.844 70.142 122.844 70.707 C 122.844 71.387,123.223 71.294,117.820 71.939 C 111.810 72.656,96.966 75.293,96.540 75.719 C 96.415 75.844,97.675 75.979,102.938 76.406 C 111.091 77.066,120.671 78.166,122.177 78.615 C 122.480 78.705,122.370 78.808,121.608 79.149 C 120.744 79.536,120.704 79.581,121.137 79.679 C 123.486 80.213,124.507 80.472,126.019 80.922 L 127.773 81.444 121.754 81.664 C 118.443 81.786,114.515 82.017,113.025 82.179 L 110.316 82.474 106.485 84.277 C 98.931 87.834,87.838 94.119,84.942 96.483 L 84.292 97.012 84.618 99.359 C 85.029 102.325,86.445 110.963,86.535 111.054 C 86.573 111.091,87.399 110.658,88.373 110.092 C 93.969 106.838,99.956 104.151,106.709 101.862 C 110.411 100.607,110.167 100.760,109.955 99.822 C 109.548 98.015,109.587 97.993,114.759 97.062 C 117.429 96.582,117.498 96.607,116.026 97.516 C 114.189 98.650,112.395 100.173,111.234 101.584 C 109.684 103.468,108.347 104.291,105.338 105.216 C 98.633 107.276,89.678 110.969,87.055 112.756 C 86.837 112.904,87.551 117.567,87.835 117.851 C 87.876 117.892,88.774 117.412,89.831 116.784 C 92.161 115.401,95.928 113.499,98.599 112.358 C 101.345 111.186,105.809 109.538,105.926 109.654 C 105.979 109.707,105.603 110.918,105.090 112.344 L 104.158 114.938 101.948 115.654 C 98.541 116.758,94.198 118.726,90.210 120.973 L 88.572 121.896 89.048 124.124 C 89.309 125.348,89.548 126.379,89.579 126.413 C 89.609 126.447,90.727 125.637,92.061 124.612 C 93.396 123.587,96.748 121.240,99.510 119.397 L 104.532 116.045 105.135 117.606 C 106.810 121.938,108.948 124.647,113.487 128.191 C 114.569 129.036,115.426 129.755,115.392 129.790 C 115.246 129.935,110.824 128.021,108.662 126.878 C 105.408 125.156,105.437 125.152,100.150 127.923 C 95.264 130.484,91.185 132.981,91.185 133.410 C 91.185 133.974,94.495 146.522,95.663 150.390 C 95.828 150.933,95.976 150.767,97.828 147.962 C 100.957 143.224,104.629 138.569,108.652 134.241 L 110.101 132.683 111.306 133.467 C 116.362 136.756,124.087 138.921,133.649 139.729 C 137.005 140.012,137.076 140.056,135.076 140.596 C 132.754 141.223,130.821 141.541,127.624 141.819 C 126.135 141.948,124.984 142.117,125.065 142.194 C 125.472 142.578,131.470 143.994,134.597 144.444 C 136.056 144.654,142.543 145.386,143.223 145.417 C 143.431 145.427,142.385 145.713,140.898 146.053 C 139.412 146.393,138.146 146.720,138.086 146.780 C 137.914 146.952,142.035 148.226,143.209 148.364 C 144.467 148.512,144.460 148.481,143.523 149.790 C 136.808 159.168,131.556 172.573,129.015 186.825 L 128.406 190.237 127.852 190.237 L 127.299 190.237 127.333 186.012 C 127.431 174.103,129.529 163.221,133.893 151.991 C 134.564 150.263,134.364 150.364,132.295 152.791 C 125.227 161.081,118.553 178.837,115.333 197.915 L 114.677 201.801 116.624 205.972 C 139.945 255.924,176.305 303.971,218.463 340.545 C 225.172 346.366,232.743 352.404,237.939 356.079 L 239.197 356.968 241.447 356.192 C 255.956 351.193,272.644 338.953,288.535 321.656 C 289.897 320.174,290.166 318.036,289.661 312.710 C 289.371 309.655,289.415 309.530,292.814 303.752 C 298.857 293.480,302.982 285.604,305.500 279.528 C 306.674 276.694,306.824 276.437,307.793 275.573 C 308.363 275.065,308.992 274.330,309.190 273.941 C 309.947 272.459,316.019 257.830,316.019 257.491 C 316.019 256.621,314.747 256.118,312.539 256.115 C 311.917 256.114,311.828 256.064,311.944 255.782 C 312.019 255.600,312.232 254.981,312.418 254.408 C 312.603 253.834,313.327 251.659,314.026 249.573 C 315.764 244.389,315.760 244.404,315.518 244.020 C 315.135 243.413,314.752 243.700,310.032 248.130 C 304.551 253.274,304.076 253.561,302.284 252.812 C 301.011 252.281,300.995 252.118,301.797 247.867 C 302.190 245.782,302.569 243.543,302.640 242.891 L 302.768 241.706 302.214 241.706 C 301.748 241.706,301.157 242.222,298.449 244.990 L 295.236 248.274 293.450 246.947 C 287.143 242.262,279.204 231.336,279.204 227.341 C 279.204 222.354,286.957 210.255,293.831 204.516 C 297.974 201.056,307.502 195.768,308.248 196.513 C 309.264 197.530,309.054 206.975,307.866 213.658 C 306.317 222.377,305.686 226.543,305.918 226.535 C 306.096 226.530,310.730 220.364,312.469 217.820 C 317.645 210.245,321.136 202.963,323.220 195.389 C 323.984 192.612,324.023 192.549,325.181 192.192 C 326.037 191.929,326.140 192.029,326.438 193.415 C 327.583 198.739,326.861 208.276,324.606 217.604 C 324.505 218.025,324.536 218.043,325.140 217.914 C 327.395 217.431,335.574 202.532,337.924 194.626 C 338.587 192.397,339.193 191.726,341.364 190.817 C 349.508 187.408,351.248 179.811,347.187 165.403 C 346.805 164.047,346.378 162.527,346.239 162.025 C 345.798 160.432,345.976 159.970,348.148 157.062 C 349.004 155.915,350.742 153.538,352.009 151.779 L 354.313 148.582 354.313 147.485 L 354.313 146.387 351.607 143.668 C 341.841 133.852,330.760 127.104,317.725 123.036 C 316.005 122.499,307.389 120.095,298.578 117.693 C 281.057 112.917,281.499 113.071,278.835 110.843 C 276.258 108.688,269.138 105.453,259.052 101.854 C 254.261 100.145,252.719 97.868,251.106 90.121 C 250.047 85.030,249.107 75.186,249.101 69.124 C 249.099 66.585,248.982 66.623,247.497 69.642 C 246.266 72.147,244.739 76.635,244.148 79.483 C 243.660 81.838,243.632 81.837,242.963 79.431 C 241.387 73.767,240.909 67.187,241.615 60.870 C 241.964 57.740,241.948 57.723,240.792 60.028 C 238.126 65.341,236.708 71.856,236.692 78.863 L 236.682 82.938 231.469 77.713 C 222.111 68.331,215.159 63.318,206.159 59.460 C 201.883 57.627,193.669 55.178,193.238 55.609 C 193.126 55.721,197.096 60.195,198.480 61.517 C 199.907 62.879,201.318 64.601,200.664 64.180 C 193.718 59.719,188.044 57.022,182.654 55.621 C 180.006 54.932,179.629 54.872,179.810 55.166 C 179.975 55.433,179.796 55.408,178.293 54.959 C 176.818 54.518,169.651 54.340,162.938 54.578 M175.260 69.989 C 185.619 74.154,197.304 81.492,203.634 87.807 C 205.400 89.569,209.123 95.383,211.410 99.951 C 212.928 102.983,213.043 103.065,214.752 102.337 C 216.674 101.519,216.692 101.004,214.966 96.335 C 212.471 89.586,208.233 82.405,203.722 77.282 L 202.414 75.796 202.822 75.387 L 203.231 74.979 206.316 78.106 C 211.094 82.948,213.736 86.469,218.255 94.022 C 221.002 98.613,221.062 98.589,219.430 93.555 C 217.363 87.178,214.432 82.419,208.821 76.330 C 206.689 74.016,206.650 73.958,206.971 73.567 C 207.296 73.170,207.317 73.184,209.763 75.410 C 217.315 82.282,222.835 89.768,226.079 97.536 C 226.902 99.508,227.262 99.970,228.436 100.564 C 230.110 101.411,232.924 101.708,233.587 101.108 C 234.900 99.920,231.382 88.760,227.453 81.648 C 226.659 80.212,226.646 80.161,227.003 79.895 C 227.541 79.495,227.499 79.464,229.106 81.469 C 233.617 87.102,236.931 93.849,238.186 99.960 C 238.696 102.442,238.631 102.399,243.843 103.674 C 260.726 107.802,266.359 110.327,280.657 120.177 C 285.546 123.545,286.455 123.542,284.472 120.167 C 283.224 118.043,283.140 118.161,285.534 118.664 C 296.253 120.915,321.769 130.122,329.282 134.449 C 334.602 137.513,343.480 144.958,344.837 147.494 L 345.064 147.918 337.793 147.813 C 329.821 147.699,327.229 147.482,322.559 146.534 C 317.980 145.606,318.154 145.677,320.095 145.519 C 321.792 145.381,333.469 144.278,337.630 143.864 C 340.568 143.571,340.544 143.470,337.396 142.887 C 331.333 141.764,327.327 141.428,319.725 141.405 L 314.218 141.388 316.777 140.837 C 318.185 140.534,320.579 140.022,322.098 139.698 C 324.501 139.186,324.957 139.029,325.604 138.485 L 326.348 137.861 324.833 137.718 C 320.594 137.319,304.396 138.267,297.062 139.344 C 285.681 141.015,276.833 143.798,269.526 148.003 C 267.830 148.979,267.796 149.049,268.819 149.458 C 269.839 149.866,269.690 149.889,272.904 148.832 C 285.126 144.812,299.691 143.085,306.571 144.842 C 308.778 145.405,312.665 147.186,313.175 147.867 C 313.787 148.683,326.858 158.244,328.974 159.424 C 330.272 160.147,331.679 160.542,333.713 160.754 C 335.536 160.944,335.845 161.093,336.007 161.861 C 336.116 162.382,337.630 175.965,337.630 176.427 C 337.630 176.635,336.718 176.683,332.749 176.684 C 325.106 176.687,319.956 177.004,312.358 177.941 C 310.188 178.209,308.377 178.392,308.333 178.349 C 307.767 177.783,308.194 177.372,310.152 176.597 C 314.182 175.001,317.870 173.070,325.308 168.660 C 327.237 167.517,330.009 165.904,331.469 165.076 C 334.939 163.107,334.912 163.156,332.417 163.314 C 327.836 163.603,320.445 165.339,313.036 167.865 C 310.462 168.743,308.327 169.432,308.291 169.397 C 308.204 169.310,313.457 165.955,315.355 164.885 C 318.018 163.384,320.968 161.992,327.109 159.338 C 331.343 157.507,311.308 162.240,304.759 164.617 L 303.495 165.076 303.232 164.568 L 302.970 164.061 305.466 162.704 C 308.968 160.800,315.866 157.806,321.022 155.950 C 322.050 155.580,320.781 155.671,317.410 156.210 C 309.402 157.490,303.092 158.978,297.021 161.017 L 293.474 162.209 293.292 161.688 C 293.123 161.203,293.159 161.147,293.806 160.880 C 294.189 160.722,295.340 160.246,296.364 159.823 C 297.388 159.400,300.708 158.153,303.742 157.052 C 308.757 155.231,310.900 154.236,310.900 153.728 C 310.900 153.650,310.246 153.526,309.446 153.451 C 302.941 152.841,289.167 156.469,275.878 162.293 C 274.895 162.723,274.358 162.582,274.319 161.883 C 274.316 161.824,275.358 161.088,276.635 160.246 C 283.606 155.652,288.489 153.713,302.559 149.949 C 310.512 147.821,310.506 147.824,306.445 147.966 C 292.641 148.446,282.377 150.349,273.156 154.139 C 264.086 157.866,262.769 159.922,266.509 164.514 C 267.363 165.564,268.101 165.949,268.986 165.807 L 269.668 165.698 269.605 166.609 C 269.544 167.478,269.595 167.587,270.694 168.954 C 276.806 176.551,282.857 179.989,290.554 180.235 L 293.620 180.333 293.739 180.805 C 293.888 181.400,294.059 181.302,291.848 181.895 C 281.195 184.754,272.420 187.767,268.920 189.770 C 259.474 195.174,249.536 209.245,244.045 224.988 C 242.698 228.852,242.702 229.080,244.177 232.722 C 250.254 247.726,258.481 258.596,269.953 266.778 C 274.027 269.684,274.048 269.618,269.668 267.685 C 259.948 263.394,256.159 260.133,244.547 246.066 C 236.626 236.471,236.926 236.715,239.312 241.818 C 245.523 255.101,254.755 266.106,264.751 272.140 C 265.042 272.316,265.048 272.393,264.811 272.846 L 264.545 273.355 262.462 272.346 C 254.150 268.318,248.132 263.537,238.124 253.009 C 235.581 250.333,233.460 248.183,233.411 248.232 C 233.293 248.350,236.130 253.762,237.450 255.939 C 241.037 261.854,245.381 267.159,250.279 271.602 C 252.902 273.982,252.813 273.865,252.418 274.387 C 251.717 275.313,243.103 268.545,235.234 260.886 C 232.198 257.930,231.469 257.382,231.469 258.053 C 231.469 259.440,229.850 264.280,229.403 264.228 C 228.766 264.154,228.782 262.893,229.488 257.251 C 233.736 223.346,246.907 199.256,269.360 184.322 C 271.555 182.862,272.408 182.185,272.655 181.705 L 272.987 181.058 272.252 180.838 C 271.407 180.585,269.232 181.733,263.710 185.349 C 246.665 196.512,235.441 212.459,227.351 237.010 C 225.091 243.867,224.997 244.069,224.282 243.616 C 223.961 243.413,224.717 239.361,226.068 234.041 C 232.257 209.680,244.039 191.238,260.832 179.627 C 263.034 178.104,263.185 177.945,263.411 176.891 L 263.550 176.246 262.656 176.368 C 261.255 176.561,255.414 179.912,251.114 182.991 C 236.275 193.616,226.411 207.849,219.617 228.436 C 217.909 233.612,218.178 233.035,217.545 232.876 C 216.913 232.718,216.910 232.747,218.309 227.109 C 223.970 204.293,235.848 186.842,254.597 173.793 C 256.273 172.627,258.378 170.724,258.188 170.547 C 257.446 169.858,249.525 173.853,244.397 177.502 C 231.281 186.835,223.095 198.334,213.639 220.710 C 212.598 223.174,212.392 223.393,211.708 222.767 C 211.389 222.475,214.175 213.434,216.059 208.645 C 223.987 188.498,237.855 172.941,257.004 162.716 C 259.016 161.641,259.336 161.308,259.336 160.287 L 259.336 159.841 257.773 160.320 C 248.660 163.110,238.091 167.936,228.246 173.804 C 227.139 174.464,233.990 168.335,237.630 165.409 C 241.122 162.603,244.643 160.037,252.191 154.797 C 255.611 152.422,258.367 150.437,258.316 150.385 C 257.849 149.918,246.930 153.905,240.569 156.865 C 236.841 158.600,225.391 164.623,221.754 166.763 C 221.235 167.069,221.998 166.331,224.787 163.833 C 231.695 157.645,237.892 152.830,247.264 146.366 C 249.121 145.085,250.600 143.997,250.551 143.948 C 249.845 143.242,232.932 150.272,225.760 154.252 L 223.369 155.579 223.078 155.100 C 222.788 154.622,222.795 154.613,224.711 153.027 C 228.186 150.151,233.378 146.356,238.337 143.067 C 241.019 141.288,243.179 139.798,243.137 139.756 C 242.996 139.615,235.962 141.632,233.555 142.503 C 228.990 144.155,223.745 146.555,219.642 148.867 L 217.957 149.817 217.617 149.366 C 217.430 149.118,217.293 148.901,217.312 148.883 C 218.482 147.789,224.821 142.748,228.300 140.146 C 230.884 138.213,232.958 136.591,232.908 136.541 C 232.858 136.492,231.810 136.681,230.579 136.961 C 223.449 138.587,216.803 140.878,211.509 143.535 C 210.468 144.057,209.659 144.371,209.712 144.233 C 209.765 144.094,210.035 143.235,210.313 142.323 C 211.233 139.301,212.880 135.506,215.311 130.806 C 216.633 128.251,218.041 125.519,218.441 124.735 C 220.763 120.180,216.309 123.270,209.420 130.995 C 208.165 132.403,207.016 133.682,206.867 133.839 C 206.568 134.152,207.127 133.109,209.255 129.384 C 211.786 124.954,214.161 121.568,217.885 117.082 C 219.001 115.737,219.871 114.595,219.819 114.542 C 219.308 114.032,210.521 120.830,206.673 124.712 C 204.063 127.346,203.946 127.438,203.501 127.201 L 203.040 126.954 203.452 126.273 C 206.699 120.913,210.563 116.309,215.587 111.816 C 217.345 110.244,218.747 108.920,218.701 108.875 C 218.587 108.760,213.671 111.239,211.675 112.418 C 207.070 115.138,202.851 119.095,197.156 126.034 C 196.516 126.815,196.478 126.832,196.065 126.538 L 195.638 126.233 196.242 125.344 C 199.641 120.349,203.254 116.857,211.375 110.719 C 215.490 107.608,215.628 107.480,215.453 106.929 C 214.952 105.351,203.907 111.112,197.390 116.350 C 182.252 128.516,173.710 148.519,173.851 171.469 L 173.873 175.071 173.326 175.128 L 172.780 175.184 172.446 173.137 C 170.343 160.261,170.872 150.214,174.253 138.768 C 175.293 135.247,176.459 132.323,179.449 125.735 C 180.082 124.339,179.823 124.483,178.095 126.487 C 172.417 133.073,168.149 143.755,166.409 155.735 C 166.073 158.046,166.072 171.550,166.408 175.545 C 166.745 179.561,167.669 187.829,168.229 191.843 C 168.729 195.428,168.728 195.450,168.052 195.450 C 166.908 195.450,163.628 181.886,162.527 172.607 C 162.041 168.506,162.037 156.775,162.520 153.365 C 163.503 146.436,165.096 141.102,167.881 135.420 C 169.338 132.446,169.421 132.140,169.090 130.948 C 168.813 129.952,168.751 129.994,167.161 132.275 C 154.992 149.727,152.314 174.038,159.428 202.464 C 159.832 204.081,160.220 205.549,160.288 205.727 C 160.454 206.154,159.479 206.445,159.222 206.045 C 158.977 205.663,157.078 199.833,156.512 197.725 C 152.566 183.028,151.713 166.511,154.250 153.934 C 157.936 135.656,167.821 121.197,182.763 112.226 C 188.537 108.759,192.786 106.971,202.366 103.977 C 206.598 102.654,208.431 101.960,208.128 101.797 C 207.456 101.434,204.209 101.391,202.608 101.723 C 200.581 102.145,200.278 101.999,198.421 99.706 C 188.620 87.601,178.924 79.449,166.999 73.286 L 163.666 71.564 163.875 71.055 L 164.085 70.546 166.937 71.647 C 178.217 76.002,188.171 81.757,196.567 88.779 C 198.638 90.511,199.005 90.663,199.621 90.047 C 200.395 89.274,200.151 88.746,198.176 86.923 C 189.805 79.194,180.581 73.525,168.881 68.918 L 167.051 68.197 167.236 67.666 L 167.422 67.135 169.919 67.990 C 171.292 68.461,173.696 69.360,175.260 69.989 M180.350 88.957 C 184.494 92.027,188.958 96.042,192.721 100.085 L 195.446 103.013 193.839 103.471 C 191.613 104.104,191.603 104.099,189.541 101.280 C 186.487 97.102,183.306 93.497,179.686 90.112 C 178.314 88.830,178.249 88.733,178.512 88.358 C 178.877 87.837,178.806 87.814,180.350 88.957 M142.161 92.830 C 142.351 93.247,142.344 93.364,142.120 93.490 C 136.554 96.605,132.374 102.551,130.904 109.445 C 130.237 112.574,130.324 112.675,131.651 110.315 C 135.395 103.658,138.793 100.863,146.540 98.068 C 147.531 97.711,148.213 97.538,148.057 97.683 C 147.900 97.829,146.913 98.683,145.862 99.582 C 140.917 103.809,138.115 108.942,137.716 114.502 C 137.569 116.551,137.540 116.553,138.965 114.408 C 141.812 110.124,143.663 108.049,145.982 106.546 C 147.104 105.819,151.317 103.693,151.622 103.700 C 151.695 103.701,150.894 104.533,149.842 105.548 C 140.522 114.548,140.776 124.541,150.521 132.246 C 152.799 134.047,152.808 134.030,150.129 133.009 C 145.003 131.057,143.597 130.315,138.528 126.891 C 136.468 125.499,134.696 124.360,134.592 124.360 C 133.857 124.360,138.737 129.887,141.745 132.462 C 143.027 133.559,144.076 134.493,144.076 134.537 C 144.076 134.764,138.392 131.659,136.496 130.397 C 130.647 126.504,126.434 121.170,124.193 114.819 C 121.874 108.248,128.167 99.436,139.384 93.548 C 142.089 92.128,141.867 92.186,142.161 92.830 M175.841 94.236 C 179.299 96.594,182.507 99.416,185.618 102.835 L 187.852 105.292 187.269 105.537 C 185.849 106.134,185.257 105.866,183.841 103.981 C 181.155 100.406,178.080 97.471,173.302 93.918 C 173.158 93.810,173.683 93.081,173.905 93.081 C 174.038 93.081,174.909 93.600,175.841 94.236 M234.313 112.925 C 230.311 113.107,228.112 113.383,226.825 113.866 C 225.526 114.353,224.919 114.692,225.345 114.692 C 225.727 114.692,237.400 116.018,240.474 116.411 C 249.413 117.553,255.496 119.128,256.533 120.569 C 256.802 120.943,257.890 126.013,257.741 126.200 C 257.724 126.222,256.959 125.307,256.042 124.168 C 253.820 121.407,253.553 121.253,250.844 121.165 C 244.488 120.960,236.082 122.831,226.941 126.485 C 223.672 127.791,218.265 130.366,218.434 130.535 C 218.530 130.632,224.337 131.071,229.573 131.379 C 241.019 132.050,249.591 134.162,263.412 139.715 C 270.757 142.666,271.088 142.729,273.460 141.628 C 279.865 138.656,287.125 136.688,299.431 134.590 C 303.637 133.873,308.892 132.700,309.550 132.332 C 310.379 131.868,295.932 131.856,290.900 132.317 C 285.669 132.796,279.219 133.759,273.761 134.876 C 272.467 135.141,271.379 135.328,271.343 135.292 C 271.236 135.185,276.730 132.596,278.768 131.794 C 282.840 130.190,286.463 129.143,292.380 127.859 C 296.784 126.904,296.777 126.907,294.848 126.701 C 288.273 125.998,277.231 126.994,271.057 128.847 C 269.019 129.458,268.976 129.441,268.341 127.740 C 267.740 126.130,265.539 121.807,264.062 119.336 C 262.187 116.201,260.514 114.978,257.168 114.298 C 251.914 113.232,241.434 112.602,234.313 112.925 M110.024 138.830 C 106.907 140.466,101.578 146.244,97.536 152.367 L 96.630 153.739 97.522 156.624 C 98.013 158.211,98.485 159.637,98.571 159.791 C 98.684 159.994,99.060 159.411,99.910 157.714 C 102.444 152.655,104.871 148.567,109.189 142.085 C 112.012 137.848,111.913 138.008,111.717 138.015 C 111.633 138.018,110.871 138.385,110.024 138.830 M108.174 154.550 C 107.169 155.457,101.422 167.123,101.422 168.256 C 101.422 168.518,101.566 169.050,101.741 169.437 C 101.960 169.920,102.095 170.889,102.168 172.512 L 102.275 174.882 102.808 173.175 C 104.780 166.865,106.304 162.861,108.466 158.315 C 109.712 155.695,109.899 155.078,109.648 154.423 C 109.482 153.990,108.722 154.055,108.174 154.550 M342.627 167.863 C 343.961 172.473,344.011 176.181,342.749 176.817 C 342.238 177.074,340.474 177.154,340.474 176.919 C 340.475 176.841,340.687 174.303,340.947 171.280 C 341.207 168.256,341.420 165.547,341.421 165.261 C 341.423 164.140,341.760 164.866,342.627 167.863 M113.944 168.403 C 113.856 168.630,113.273 170.095,112.647 171.659 C 111.230 175.201,109.467 180.201,108.530 183.335 L 107.816 185.723 108.724 187.941 C 109.792 190.551,109.744 190.569,110.413 187.299 C 111.458 182.196,113.809 173.463,115.154 169.692 C 115.566 168.538,115.539 168.432,114.776 168.198 C 114.163 168.010,114.089 168.028,113.944 168.403 M144.990 184.408 C 146.490 214.721,158.287 243.247,178.081 264.420 C 180.069 266.547,180.060 266.531,179.565 266.979 C 179.245 267.269,179.069 267.167,176.704 265.318 C 162.982 254.592,153.266 243.388,146.054 229.974 C 145.184 228.356,144.433 227.157,144.386 227.308 C 144.338 227.459,144.206 227.873,144.093 228.227 C 143.692 229.477,144.185 231.023,146.840 236.850 C 151.214 246.453,159.014 257.449,167.086 265.393 C 168.501 266.785,168.713 267.488,167.720 267.488 C 166.525 267.488,156.635 257.234,152.739 251.956 C 150.232 248.559,150.488 248.796,149.782 249.213 C 149.017 249.665,148.979 249.505,150.595 252.609 C 153.014 257.255,156.096 261.941,159.527 266.191 L 160.786 267.750 160.362 268.070 C 159.876 268.436,159.576 268.158,156.357 264.360 C 141.797 247.182,135.383 227.052,136.430 201.817 L 136.555 198.799 137.480 202.291 C 140.956 215.415,147.613 229.980,152.711 235.617 C 153.622 236.624,156.578 239.125,156.706 238.997 C 156.742 238.961,156.011 237.316,155.080 235.342 C 146.747 217.661,142.489 197.796,143.593 181.754 L 143.733 179.716 144.246 179.716 L 144.758 179.716 144.990 184.408 M334.043 183.303 C 334.767 184.027,334.804 185.023,334.132 185.696 C 333.578 186.250,332.977 186.274,327.585 185.956 C 323.609 185.722,323.075 185.780,322.206 186.543 C 321.545 187.124,321.466 187.339,320.279 191.848 C 319.990 192.943,319.322 194.948,318.794 196.303 L 317.835 198.768 317.611 195.735 C 317.487 194.066,317.252 191.947,317.088 191.025 C 316.716 188.934,316.837 188.596,318.389 187.385 L 319.526 186.497 317.774 186.628 C 316.811 186.699,314.962 186.905,313.666 187.085 L 311.309 187.412 311.214 186.929 C 311.162 186.663,311.177 186.392,311.247 186.326 C 311.734 185.869,320.381 184.146,325.793 183.428 C 332.467 182.542,333.270 182.530,334.043 183.303 M267.840 237.710 C 272.430 240.016,277.678 243.491,282.749 247.582 C 285.743 249.997,289.479 253.244,289.479 253.431 C 289.479 253.506,287.392 254.534,284.841 255.716 L 280.203 257.865 279.390 257.445 C 277.512 256.472,270.345 251.510,270.335 251.174 C 270.310 250.356,270.896 250.341,272.359 251.124 C 274.247 252.135,278.521 254.055,278.632 253.943 C 278.679 253.896,277.961 253.158,277.037 252.304 C 271.076 246.796,266.556 241.469,263.339 236.162 L 262.908 235.452 264.393 236.088 C 265.209 236.438,266.760 237.168,267.840 237.710 M299.344 262.033 C 299.966 262.961,300.474 263.840,300.474 263.984 C 300.474 264.128,300.605 264.320,300.765 264.410 C 301.246 264.679,300.413 265.292,299.598 265.269 C 298.560 265.240,294.945 264.051,295.051 263.774 C 295.101 263.646,295.722 262.734,296.433 261.747 C 297.931 259.667,297.750 259.650,299.344 262.033 " stroke="none" fill="#04245c" fill-rule="evenodd"></path><path id="path2" d="" stroke="none" fill="#1003c30" fill-rule="evenodd"></path><path id="path3" d="" stroke="none" fill="#443c30" fill-rule="evenodd"></path><path id="path4" d="" stroke="none" fill="#043c60" fill-rule="evenodd"></path></g></svg>